toy_with_forces_states
version=1
nRows=24
nColumns=17
inDegrees=yes

# SIMM Motion File Header:
name toy_with_forces_states
datacolumns 17
datarows 24
otherdata 1
range 6.60483759 6.73478781
endheader
time	/jointset/ground_block/xRotation/value	/jointset/ground_block/xRotation/speed	/jointset/ground_block/yRotation/value	/jointset/ground_block/yRotation/speed	/jointset/ground_block/zRotation/value	/jointset/ground_block/zRotation/speed	/jointset/ground_block/xTranslation/value	/jointset/ground_block/xTranslation/speed	/jointset/ground_block/yTranslation/value	/jointset/ground_block/yTranslation/speed	/jointset/ground_block/zTranslation/value	/jointset/ground_block/zTranslation/speed	/jointset/pin1/pin1_rot/value	/jointset/pin1/pin1_rot/speed	/jointset/pin2/pin2_rot/value	/jointset/pin2/pin2_rot/speed
      6.60483759	     -0.00000000	     -0.00000000	      0.00000000	      0.00000000	     54.73153146	    -12.55356347	      0.00000000	      0.00000000	      0.70825067	     -0.33021717	     -0.00000000	     -0.00000000	     -5.97463992	     37.61015360	    -97.51378309	    -50.11318026
      6.60918301	     -0.00000000	     -0.00000000	      0.00000000	      0.00000000	     54.67599942	    -13.00312650	      0.00000000	      0.00000000	      0.70683189	     -0.32269300	     -0.00000000	     -0.00000000	     -5.81153809	     37.44923350	    -97.72892266	    -48.89221401
      6.61352843	     -0.00000000	     -0.00000000	      0.00000000	      0.00000000	     54.61854235	    -13.43958287	      0.00000000	      0.00000000	      0.70544693	     -0.31466067	     -0.00000000	     -0.00000000	     -5.64924144	     37.23980861	    -97.93860181	    -47.60045149
      6.61787385	     -0.00000000	     -0.00000000	      0.00000000	      0.00000000	     54.55921697	    -13.86304568	      0.00000000	      0.00000000	      0.70409794	     -0.30613458	     -0.00000000	     -0.00000000	     -5.48795794	     36.98319605	    -98.14251806	    -46.24030074
      6.62221927	     -0.00000000	     -0.00000000	      0.00000000	      0.00000000	     54.49807946	    -14.27364365	      0.00000000	      0.00000000	      0.70278705	     -0.29712995	     -0.00000000	     -0.00000000	     -5.32788956	     36.68081114	    -98.34037980	    -44.81433498
      6.62656469	     -0.00000000	     -0.00000000	      0.00000000	      0.00000000	     54.43518543	    -14.67152049	      0.00000000	      0.00000000	      0.70151630	     -0.28766275	     -0.00000000	     -0.00000000	     -5.16923212	     36.33408765	    -98.53190663	    -43.32513433
      6.63091011	     -0.00000000	     -0.00000000	      0.00000000	      0.00000000	     54.37058981	    -15.05683446	      0.00000000	      0.00000000	      0.70028766	     -0.27774965	     -0.00000000	     -0.00000000	     -5.01217514	     35.94447160	    -98.71682935	    -41.77527428
      6.63525553	     -0.00000000	     -0.00000000	      0.00000000	      0.00000000	     54.30434683	    -15.42975782	      0.00000000	      0.00000000	      0.69910304	     -0.26740805	     -0.00000000	     -0.00000000	     -4.85690177	     35.51347505	    -98.89489013	    -40.16743446
      6.63960095	     -0.00000000	     -0.00000000	      0.00000000	      0.00000000	     54.23650993	    -15.79047620	      0.00000000	      0.00000000	      0.69796426	     -0.25665602	     -0.00000000	     -0.00000000	     -4.70358840	     35.04267218	    -99.06584305	    -38.50439197
      6.64490587	     -0.00000000	     -0.00000000	      0.00000000	      0.00000000	     54.15161003	    -16.21458779	      0.00000000	      0.00000000	      0.69663868	     -0.24300047	     -0.00000000	     -0.00000000	     -4.51932360	     34.41594089	    -99.26457285	    -36.40270621
      6.65021078	     -0.00000000	     -0.00000000	      0.00000000	      0.00000000	     54.06450687	    -16.62119213	      0.00000000	      0.00000000	      0.69538703	     -0.22879621	     -0.00000000	     -0.00000000	     -4.33852982	     33.73508028	    -99.45195410	    -34.22777630
      6.65551570	     -0.00000000	     -0.00000000	      0.00000000	      0.00000000	     53.97529224	    -17.01069982	      0.00000000	      0.00000000	      0.69421210	     -0.21408049	     -0.00000000	     -0.00000000	     -4.16148182	     33.00426573	    -99.62762084	    -31.98713181
      6.66082061	     -0.00000000	     -0.00000000	      0.00000000	      0.00000000	     53.88405570	    -17.38354535	      0.00000000	      0.00000000	      0.69311651	     -0.19888976	     -0.00000000	     -0.00000000	     -3.98844017	     32.22513060	    -99.79123105	    -29.68317049
      6.66612553	     -0.00000000	     -0.00000000	      0.00000000	      0.00000000	     53.79088443	    -17.74018637	      0.00000000	      0.00000000	      0.69210268	     -0.18326262	     -0.00000000	     -0.00000000	     -3.81965364	     31.40088719	    -99.94246158	    -27.32140163
      6.67143044	     -0.00000000	     -0.00000000	      0.00000000	      0.00000000	     53.69586315	    -18.08110038	      0.00000000	      0.00000000	      0.69117282	     -0.16723927	     -0.00000000	     -0.00000000	     -3.65535017	     30.53565438	   -100.08102596	    -24.90910800
      6.67673536	     -0.00000000	     -0.00000000	      0.00000000	      0.00000000	     53.59907397	    -18.40678322	      0.00000000	      0.00000000	      0.69032892	     -0.15085957	     -0.00000000	     -0.00000000	     -3.49573966	     29.63214188	   -100.20666862	    -22.45071733
      6.68204027	     -0.00000000	     -0.00000000	      0.00000000	      0.00000000	     53.50059634	    -18.71774821	      0.00000000	      0.00000000	      0.68957278	     -0.13416432	     -0.00000000	     -0.00000000	     -3.34101770	     28.69334294	   -100.31915727	    -19.95118947
      6.68866545	     -0.00000000	     -0.00000000	      0.00000000	      0.00000000	     53.37535536	    -19.08624103	      0.00000000	      0.00000000	      0.68875403	     -0.11293435	     -0.00000000	     -0.00000000	     -3.15491925	     27.47659052	   -100.44087222	    -16.78069899
      6.69529062	     -0.00000000	     -0.00000000	      0.00000000	      0.00000000	     53.24774345	    -19.43366214	      0.00000000	      0.00000000	      0.68807711	     -0.09135988	     -0.00000000	     -0.00000000	     -2.97702872	     26.21731811	   -100.54142946	    -13.56731195
      6.70191580	     -0.00000000	     -0.00000000	      0.00000000	      0.00000000	     53.11789662	    -19.76109564	      0.00000000	      0.00000000	      0.68754405	     -0.06952410	     -0.00000000	     -0.00000000	     -2.80760276	     24.92246586	   -100.62058772	    -10.32274045
      6.71046874	     -0.00000000	     -0.00000000	      0.00000000	      0.00000000	     52.94717057	    -20.15604364	      0.00000000	      0.00000000	      0.68707089	     -0.04108139	     -0.00000000	     -0.00000000	     -2.60174421	     23.20597358	   -100.69085273	     -6.09985988
      6.71902168	     -0.00000000	     -0.00000000	      0.00000000	      0.00000000	     52.77319250	    -20.52194706	      0.00000000	      0.00000000	      0.68684163	     -0.01252160	     -0.00000000	     -0.00000000	     -2.41072619	     21.45430685	   -100.72493262	     -1.86471959
      6.72757462	     -0.00000000	     -0.00000000	      0.00000000	      0.00000000	     52.59620038	    -20.86125061	      0.00000000	      0.00000000	      0.68685650	      0.01597454	     -0.00000000	     -0.00000000	     -2.23478588	     19.68335665	   -100.72282901	      2.35578791
      6.73478781	     -0.00000000	     -0.00000000	      0.00000000	      0.00000000	     52.44475051	    -21.12853357	      0.00000000	      0.00000000	      0.68705789	      0.03982738	     -0.00000000	     -0.00000000	     -2.09821043	     18.18415126	   -100.69308017	      5.88876461
